<svg width="760" height="374" viewBox="0 0 760 374" fill="none" xmlns="http://www.w3.org/2000/svg" role="img" aria-labelledby="title desc">
<title id="title">Language Mix</title>
<desc id="desc">Aggregate repository language usage. Aliases: Blade-&gt;PHP, Twig-&gt;PHP. Incidental languages hidden.</desc>

<defs>
  <linearGradient id="accent" x1="0" x2="760" y1="0" y2="0" gradientUnits="userSpaceOnUse">
    <stop offset="0" stop-color="#ff5a5f" />
    <stop offset="0.34" stop-color="#f59e0b" />
    <stop offset="0.67" stop-color="#34d399" />
    <stop offset="1" stop-color="#38bdf8" />
  </linearGradient>
  <pattern id="grid" width="28" height="28" patternUnits="userSpaceOnUse">
    <path d="M 28 0 L 0 0 0 28" fill="none" stroke="#1e293b" stroke-width="0.7" opacity="0.55" />
  </pattern>
</defs>

<style>
  .bg { fill: #0b1020; }
  .card { fill: #0f172a; stroke: #263244; stroke-width: 1; }
  .panel { fill: #111827; stroke: #243047; stroke-width: 1; }
  .title { fill: #f5f7fb; font: 800 24px -apple-system, BlinkMacSystemFont, Segoe UI, sans-serif; }
  .subtitle { fill: #9ca8ba; font: 500 13px -apple-system, BlinkMacSystemFont, Segoe UI, sans-serif; }
  .label { fill: #cbd5e1; font: 700 14px -apple-system, BlinkMacSystemFont, Segoe UI, sans-serif; }
  .small { fill: #9ca8ba; font: 500 12px -apple-system, BlinkMacSystemFont, Segoe UI, sans-serif; }
  .value { fill: #f5f7fb; font: 800 27px -apple-system, BlinkMacSystemFont, Segoe UI, sans-serif; }
  .axis { fill: #cbd5e1; font: 700 13px -apple-system, BlinkMacSystemFont, Segoe UI, sans-serif; }
</style>
<rect class="bg" width="760" height="374" rx="16" />
<rect width="760" height="374" fill="url(#grid)" rx="16" />
<rect class="card" x="0.5" y="0.5" width="759" height="373" rx="16" />
<rect x="0" y="0" width="760" height="5" fill="url(#accent)" />
<text x="28" y="42" class="title">Language Mix</text>
<text x="28" y="64" class="subtitle">Aggregate repository language usage. Aliases: Blade-&gt;PHP, Twig-&gt;PHP. Incidental languages hidden.</text>

<clipPath id="barClip"><rect x="28" y="92" width="704" height="16" rx="8" /></clipPath>
<rect x="28" y="92" width="704" height="16" fill="#1f2937" rx="8" />
<g clip-path="url(#barClip)"><rect x="28" y="92" width="457" height="16" fill="#4F5D95" /><rect x="485" y="92" width="246" height="16" fill="#f1e05a" /><rect x="731" y="92" width="1" height="16" fill="#3178c6" /><rect x="732" y="92" width="1" height="16" fill="#8b949e" /><rect x="733" y="92" width="1" height="16" fill="#00B4AB" /><rect x="734" y="92" width="1" height="16" fill="#41b883" /><rect x="735" y="92" width="1" height="16" fill="#8b949e" /></g>
<circle cx="38" cy="139" r="5" fill="#4F5D95" /><text x="54" y="144" class="label">PHP</text><text x="690" y="144" class="small" text-anchor="end">64.9%</text><circle cx="38" cy="167" r="5" fill="#f1e05a" /><text x="54" y="172" class="label">JavaScript</text><text x="690" y="172" class="small" text-anchor="end">34.9%</text><circle cx="38" cy="195" r="5" fill="#3178c6" /><text x="54" y="200" class="label">TypeScript</text><text x="690" y="200" class="small" text-anchor="end">0.1%</text><circle cx="38" cy="223" r="5" fill="#8b949e" /><text x="54" y="228" class="label">CMake</text><text x="690" y="228" class="small" text-anchor="end">0.0%</text><circle cx="38" cy="251" r="5" fill="#00B4AB" /><text x="54" y="256" class="label">Dart</text><text x="690" y="256" class="small" text-anchor="end">0.0%</text><circle cx="38" cy="279" r="5" fill="#41b883" /><text x="54" y="284" class="label">Vue</text><text x="690" y="284" class="small" text-anchor="end">0.0%</text><circle cx="38" cy="307" r="5" fill="#8b949e" /><text x="54" y="312" class="label">TSQL</text><text x="690" y="312" class="small" text-anchor="end">0.0%</text><circle cx="38" cy="335" r="5" fill="#3572A5" /><text x="54" y="340" class="label">Python</text><text x="690" y="340" class="small" text-anchor="end">0.0%</text>

</svg>
